<svg xmlns="http://www.w3.org/2000/svg" width="25" height="25" viewBox="0 0 25 25"><path fill="#FFF" d="M21.84 10.05c.393-2.626-1.608-4.039-4.343-4.98l.887-3.56-2.166-.539-.864 3.465a90.63 90.63 0 0 0-1.735-.409l.87-3.487L12.324 0l-.888 3.557a72.478 72.478 0 0 1-1.384-.325l.003-.011-2.988-.746-.576 2.314s1.607.368 1.573.39c.878.22 1.036.8 1.01 1.26l-1.01 4.054c.06.016.138.038.224.073l-.229-.057-1.416 5.679c-.108.266-.38.666-.993.514.022.032-1.575-.393-1.575-.393L3 18.79l2.82.702c.524.132 1.038.27 1.543.399l-.896 3.6 2.164.539.888-3.561c.59.16 1.165.308 1.726.448l-.885 3.544 2.167.54.896-3.592c3.694.699 6.472.417 7.641-2.924.942-2.69-.047-4.241-1.99-5.253 1.415-.327 2.481-1.258 2.766-3.18zm-4.95 6.94c-.67 2.69-5.199 1.236-6.667.871l1.19-4.768c1.468.367 6.177 1.092 5.477 3.897zm.67-6.978c-.61 2.446-4.38 1.203-5.604.898l1.079-4.324c1.223.305 5.161.873 4.525 3.426z"/></svg>