<svg xmlns="http://www.w3.org/2000/svg" width="20" height="18" viewBox="0 0 20 18"><path fill="#FFF" d="M18.85 5.72c.762 1.078 1.102 2.31 1.144 3.646a11.946 11.946 0 0 1-.454 3.72c-.604 2.085-1.873 3.499-3.791 4.27-1.237.497-2.528.644-3.833.641-1.827-.003-3.662.04-5.48-.12-2.135-.186-3.99-1.065-5.231-3.064C.585 13.814.3 12.697.139 11.54c-.2-1.412-.228-2.82.214-4.202a6.242 6.242 0 0 1 1.045-1.954c.13-.168.164-.308.131-.543-.057-.412-.027-.842 0-1.263.074-1.158.307-2.281.7-3.366.022-.062.053-.122.09-.205 1.302.17 2.432.749 3.53 1.41.42.253.817.55 1.235.807.115.07.276.115.404.093a14.735 14.735 0 0 1 5.074.009.496.496 0 0 0 .319-.068c.789-.487 1.564-1.002 2.36-1.474.752-.446 1.594-.596 2.445-.783.344.82.56 1.667.675 2.535.091.689.189 1.397.125 2.08-.046.488.128.772.364 1.106zm-1.14 7.555c.256-.774.356-1.56.245-2.366-.17-1.235-1.274-2.94-3.11-2.909-.679.012-1.358.054-2.037.068-1.182.023-2.365.054-3.547.048-1.073-.004-2.146-.092-3.217-.067-.702.017-1.38.219-1.932.723-.954.87-1.201 2-1.086 3.22.185 1.938.89 2.994 2.795 3.53 1.515.425 3.067.495 4.625.473.504 0 1.009.013 1.512-.003 1.221-.039 2.425-.21 3.586-.605 1.04-.355 1.804-1.019 2.166-2.112zM6.5 14c-.828 0-1.5-.895-1.5-2s.672-2 1.5-2 1.5.895 1.5 2-.672 2-1.5 2zm7 0c-.828 0-1.5-.895-1.5-2s.672-2 1.5-2 1.5.895 1.5 2-.672 2-1.5 2z"/></svg>