<?xml version="1.0" encoding="UTF-8"?>
<svg width="100px" height="100px" viewBox="0 0 100 100" version="1.1" xmlns="http://www.w3.org/2000/svg" xmlns:xlink="http://www.w3.org/1999/xlink">
    <!-- Generator: Sketch 51.2 (57519) - http://www.bohemiancoding.com/sketch -->
    <title>convert</title>
    <desc>Created with Sketch.</desc>
    <defs>
        <radialGradient cx="50%" cy="50%" fx="50%" fy="50%" r="50%" id="radialGradient-1">
            <stop stop-color="#000000" offset="0%"></stop>
            <stop stop-color="#0643E8" offset="100%"></stop>
        </radialGradient>
    </defs>
    <g id="Design" stroke="none" stroke-width="1" fill="none" fill-rule="evenodd">
        <g id="Tardis_Laptop" transform="translate(-145.000000, -2690.000000)" fill-rule="nonzero">
            <g id="Group" transform="translate(145.000000, 2475.000000)">
                <g id="convert" transform="translate(0.000000, 215.000000)">
                    <g id="Group-10-Copy" fill="url(#radialGradient-1)">
                        <rect id="Rectangle-13-Copy" x="0" y="0" width="100" height="100" rx="50"></rect>
                    </g>
                    <g id="Group-9" transform="translate(50.296722, 50.147314) rotate(-45.000000) translate(-50.296722, -50.147314) translate(24.296722, 28.147314)" fill="#FFFFFF">
                        <polygon id="Stroke-1" points="50.8225557 18.6709391 52.2368193 20.0851026 46.6192708 25.7030483 41.0017224 20.0851026 42.4159859 18.6709391 46.6192708 22.8745212"></polygon>
                        <polygon id="Stroke-3" points="4.95256944 20.7921455 0.749284558 24.9957276 -0.664979002 23.5815641 4.95256944 17.9636184 10.5701179 23.5815641 9.15585433 24.9957276"></polygon>
                        <path d="M43.5846386,30.5940978 L45.3783475,31.4787495 C41.7283691,38.8794004 34.1862405,43.6666319 25.7860069,43.6666319 C13.7278194,43.6666319 3.95267361,33.8914861 3.95267361,21.8332986 L3.95267361,19.4027431 L5.95267361,19.4027431 L5.95267361,21.8332986 C5.95267361,32.7869166 14.8323889,41.6666319 25.7860069,41.6666319 C33.4174715,41.6666319 40.2683532,37.3181571 43.5846386,30.5940978 Z" id="Stroke-5"></path>
                        <path d="M7.98720164,13.0725689 L6.19349281,12.1879172 C9.84347119,4.78726623 17.3855998,3.47222231e-05 25.7858333,3.47222231e-05 C37.8440209,3.47222231e-05 47.6191667,9.77518053 47.6191667,21.8333681 L47.6191667,24.2639236 L45.6191667,24.2639236 L45.6191667,21.8333681 C45.6191667,10.87975 36.7394514,2.00003472 25.7858333,2.00003472 C18.1543688,2.00003472 11.3034871,6.34850961 7.98720164,13.0725689 Z" id="Stroke-7"></path>
                    </g>
                </g>
            </g>
        </g>
    </g>
</svg>