<svg xmlns="http://www.w3.org/2000/svg" width="150" height="120" viewBox="0 0 150 120">
    <defs>
        <radialGradient id="a" r="75%" fx="50%" fy="50%" gradientTransform="matrix(-.66667 0 0 -1 .833 1)">
            <stop offset="0%" stop-color="#17171D"/>
            <stop offset="100%" stop-color="#0643E8"/>
        </radialGradient>
    </defs>
    <g fill="none" fill-rule="evenodd">
        <path d="M6.41 0h137.18c2.23 0 3.037.232 3.852.668a4.543 4.543 0 0 1 1.89 1.89c.436.815.668 1.623.668 3.852v107.18c0 2.23-.232 3.037-.668 3.852a4.543 4.543 0 0 1-1.89 1.89c-.815.436-1.623.668-3.852.668H6.41c-2.23 0-3.037-.232-3.852-.668a4.543 4.543 0 0 1-1.89-1.89C.232 116.627 0 115.82 0 113.59V6.41c0-2.23.232-3.037.668-3.852a4.543 4.543 0 0 1 1.89-1.89C3.373.232 4.18 0 6.41 0z"/>
        <rect width="150" height="100" y="10" fill="url(#a)" fill-rule="nonzero" rx="5"/>
        <g fill="#FFF">
            <path d="M10 20h2v80h-2z"/>
            <path d="M10 59h130v2H10z"/>
        </g>
        <text fill="#FFF" font-family="Formular-Medium, Formular" font-size="18" font-weight="400" opacity=".9">
            <tspan x="129.002" y="33">T</tspan>
        </text>
        <text fill="#FFF" font-family="Formular-Medium, Formular" font-size="18" font-weight="400" opacity=".9">
            <tspan x="126.896" y="101">C</tspan>
        </text>
    </g>
</svg>
