<svg xmlns="http://www.w3.org/2000/svg" width="100" height="100" viewBox="0 0 100 100">
    <defs>
        <radialGradient id="a" fx="50%" fy="50%">
            <stop offset="0%"/>
            <stop offset="100%" stop-color="#0643E8"/>
        </radialGradient>
    </defs>
    <g fill="none" fill-rule="nonzero">
        <rect width="100" height="100" fill="url(#a)" rx="50"/>
        <path fill="#FFF" d="M36 36v8.458h8.458V36H36zm6.042 6.042h-3.625v-3.625h3.625v3.625zM36 56.542h8.458V65H36v-8.459zm6.042 6.042v-3.625h-3.625v3.625h3.625zM56.542 36H65v8.458h-8.458V36zm6.041 6.042v-3.625h-3.625v3.625h3.625zm0 4.833H65v9.666h-8.458v-2.416h6.041v-7.25zm-6.041 12.084H65V65h-2.417v-3.625h-3.625V65h-2.416v-6.041zM46.875 36h7.25v8.458h-2.417v-6.041h-4.833V36zm4.833 10.875h7.25v4.834h-2.416v-2.417h-2.417v4.833h-4.833v2.416h4.833V65h-2.417v-6.041h-4.833v-7.25h4.833v-4.834zm-4.833 14.5h2.417V65h-2.417v-3.625zm-6.042-9.666h3.625v2.416h-3.625v-2.416zm6.042-10.876h2.417v8.459H38.417v4.833H36v-7.25h10.875v-6.042z"/>
    </g>
</svg>
