<svg xmlns="http://www.w3.org/2000/svg" width="20" height="26" viewBox="0 0 20 26"><path fill="#FFF" d="M19.948 10.452c.416-2.731-1.702-4.2-4.598-5.18l.94-3.7-2.294-.562-.915 3.603a97.425 97.425 0 0 0-1.838-.425l.921-3.627L9.872 0l-.94 3.7c-.5-.112-.99-.222-1.465-.339l.003-.011-3.163-.776-.61 2.406s1.701.383 1.665.407c.93.228 1.097.831 1.069 1.31l-1.07 4.216c.064.016.147.04.238.075l-.242-.059-1.5 5.906c-.114.277-.402.693-1.051.535.023.033-1.667-.408-1.667-.408L0 19.54l2.985.731c.555.137 1.1.28 1.635.415l-.95 3.743 2.292.561.94-3.703c.626.167 1.233.32 1.828.466l-.937 3.686 2.294.561.95-3.736c3.91.727 6.852.434 8.09-3.04.997-2.798-.05-4.412-2.108-5.464 1.499-.34 2.628-1.308 2.929-3.308zm-5.021 7.809c-.696 2.94-5.401 1.35-6.927.952L9.236 14c1.526.4 6.418 1.194 5.69 4.26zm0-7.773c-.646 2.491-4.634 1.225-5.927.915L10.14 7c1.294.31 5.46.89 4.787 3.488z"/></svg>