<svg xmlns="http://www.w3.org/2000/svg" width="20" height="20" viewBox="0 0 20 20"><path fill="#FFF" d="M17.442 1.813c-.54.326-.997.53-1.412.855-.415.326-.747.733-1.038 1.1-.249.325-.166.447.208.65 1.12.53 2.159 1.222 2.948 2.2 1.08 1.302 1.702 2.768 1.827 4.437.124 1.588-.208 3.095-1.038 4.479-.955 1.67-2.326 2.85-4.11 3.664-1.786.815-3.696.896-5.606.733a16.362 16.362 0 0 1-4.65-1.018c-.956-.366-1.91-.814-2.865-1.262-.084-.04-.167-.122-.333-.244.166-.082.291-.163.416-.204.788-.285 1.453-.692 2.034-1.303l.083-.081c.498-.692.498-.774-.124-1.14-1.246-.733-2.201-1.71-2.865-2.972C.003 9.997-.246 8.164.252 6.25.875 4.01 2.287 2.383 4.28 1.16 5.36.51 6.563.266 7.81.103c1.577-.204 3.155-.082 4.732.163 1.37.244 2.7.57 3.986 1.14.25.122.499.203.706.285.083.04.125.081.208.122zm-7.614 16.18c.884.04 1.727-.08 2.57-.361 1.969-.642 3.496-1.804 4.259-3.849.883-2.445.04-5.372-2.29-6.855-2.41-1.523-5.383-1.122-7.351.842-1.607 1.563-2.13 4.009-1.125 6.214.281.641.241 1.242-.08 1.804-.201.32-.442.601-.643.882-.241.28-.241.32.12.48 1.406.602 2.933.883 4.54.842z"/></svg>