<svg xmlns="http://www.w3.org/2000/svg" width="20" height="16" viewBox="0 0 20 16"><path fill="#FFF" d="M6.29 16c7.547 0 11.675-6.156 11.675-11.495 0-.175 0-.349-.012-.522A8.278 8.278 0 0 0 20 1.892a8.291 8.291 0 0 1-2.357.635A4.066 4.066 0 0 0 19.447.293a8.302 8.302 0 0 1-2.605.98 4.154 4.154 0 0 0-4.93-.794 4.022 4.022 0 0 0-2.063 4.48A11.712 11.712 0 0 1 1.392.736a4.005 4.005 0 0 0 1.27 5.393A4.122 4.122 0 0 1 .8 5.624v.052c0 1.923 1.377 3.58 3.292 3.96a4.16 4.16 0 0 1-1.853.07c.538 1.645 2.078 2.772 3.834 2.805A8.316 8.316 0 0 1 0 14.185a11.75 11.75 0 0 0 6.29 1.812"/></svg>