<svg xmlns="http://www.w3.org/2000/svg" width="25" height="25" viewBox="0 0 25 25">
    <path fill="#FFF" fill-rule="nonzero" d="M21.85 9.572c.762 1.049 1.102 2.25 1.144 3.55a11.349 11.349 0 0 1-.454 3.624c-.604 2.03-1.873 3.407-3.791 4.157-1.237.485-2.528.628-3.833.625-1.827-.003-3.662.039-5.48-.116-2.135-.182-3.99-1.038-5.231-2.985-.62-.973-.904-2.061-1.066-3.188-.2-1.376-.228-2.747.214-4.093a6.03 6.03 0 0 1 1.045-1.903c.13-.164.164-.3.131-.529-.057-.401-.027-.82 0-1.23a11.55 11.55 0 0 1 .7-3.278c.022-.061.053-.12.09-.2 1.302.166 2.432.73 3.53 1.373.42.247.817.536 1.235.787a.65.65 0 0 0 .404.09 15.124 15.124 0 0 1 5.074.008.507.507 0 0 0 .319-.066c.789-.474 1.564-.975 2.36-1.436.752-.433 1.594-.58 2.445-.762.344.8.56 1.623.675 2.47.091.67.189 1.36.125 2.025-.046.475.128.752.364 1.077zm-1.751 7.76c.251-.765.35-1.543.24-2.34-.167-1.22-1.25-2.905-3.05-2.874-.666.011-1.332.053-1.999.066-1.16.024-2.32.054-3.48.049-1.051-.005-2.104-.092-3.154-.067-.69.017-1.353.216-1.895.714-.937.86-1.18 1.977-1.066 3.183.181 1.916.873 2.96 2.741 3.489 1.487.42 3.01.49 4.538.468.494 0 .989.013 1.483-.003 1.198-.038 2.378-.208 3.517-.599 1.02-.35 1.77-1.006 2.125-2.086zm-10.49.434c-.831 0-1.505-.843-1.505-1.883S8.778 14 9.61 14s1.506.843 1.506 1.883-.674 1.883-1.506 1.883zm7.155 0c-.832 0-1.506-.843-1.506-1.883S15.932 14 16.764 14s1.506.843 1.506 1.883-.674 1.883-1.506 1.883z" opacity=".6"/>
</svg>
