<svg xmlns="http://www.w3.org/2000/svg" width="20" height="17" viewBox="0 0 20 17">
    <path fill="#FFF" fill-rule="nonzero" d="M19.99 7.494c.082.868-.331 1.512-1.012 2.009-.164.119-.214.22-.185.426.213 1.553-.246 2.914-1.284 4.085-1.307 1.476-3.006 2.281-4.914 2.705a11.783 11.783 0 0 1-4.017.19c-1.542-.19-3.013-.607-4.34-1.431-1.162-.722-2.119-1.636-2.675-2.901a4.763 4.763 0 0 1-.33-2.768c.017-.103-.003-.16-.099-.221C.557 9.208.14 8.706.031 8.013-.243 6.25 1.35 5.178 2.691 5.527c.387.101.747.31 1.115.477.09.041.15.068.248.002 1.076-.722 2.258-1.195 3.53-1.46.71-.148 1.425-.249 2.15-.243.144 0 .172-.076.206-.181.386-1.213.776-2.424 1.164-3.635.137-.43.346-.551.793-.457 1.076.226 2.152.449 3.226.68.133.03.209.005.298-.097.912-1.045 2.328-.568 2.784.23.569.998-.069 2.244-1.244 2.43-.855.136-1.702-.397-1.93-1.234-.048-.177-.133-.236-.303-.27-.83-.166-1.655-.347-2.482-.522-.066-.014-.132-.021-.216-.034l-1.041 3.19.57.058c1.62.162 3.123.657 4.487 1.542.086.056.137.053.221-.015.735-.59 1.555-.695 2.413-.324.791.346 1.229.98 1.31 1.83zM13.503 11c.794 0 1.5-.702 1.497-1.486A1.517 1.517 0 0 0 13.495 8c-.8.002-1.496.683-1.495 1.46 0 .849.677 1.54 1.503 1.54zm.397 2.74c.156-.182.116-.398-.028-.541-.199-.2-.456-.255-.656-.14-.08.047-.154.105-.233.153-1.378.844-2.818.975-4.31.35-.305-.128-.586-.318-.874-.487-.214-.126-.483-.081-.689.128-.135.137-.152.373-.017.566.077.108.18.206.289.283.932.659 1.981.934 3.194.948.131-.01.347-.022.563-.042.754-.07 1.473-.27 2.124-.663.237-.146.454-.344.637-.555zM7.547 11c.744-.002 1.456-.732 1.453-1.49C8.997 8.69 8.307 8 7.49 8 6.686 8 5.999 8.692 6 9.503c.002.82.704 1.499 1.547 1.497z" />
</svg>
