<svg width="100" height="100" viewBox="0 0 100 100" xmlns="http://www.w3.org/2000/svg"><title>convert</title><defs><radialGradient fx="50%" fy="50%" id="a"><stop offset="0%"/><stop stop-color="#0643E8" offset="100%"/></radialGradient></defs><g fill-rule="nonzero" fill="none"><rect width="100" height="100" rx="50" fill="url(#a)"/><g fill="#FFF"><path d="M65.495 30.241h2v7.945h-7.944v-2h5.944zM34.56 64.176v5.945h-2v-7.945h7.944v2z"/><path d="M68.808 43.79l1.894-.643a21.831 21.831 0 0 1-5.236 22.472c-8.526 8.527-22.35 8.527-30.877 0l-1.719-1.718 1.415-1.415 1.718 1.719c7.746 7.745 20.303 7.745 28.049 0a19.831 19.831 0 0 0 4.756-20.415zM31.247 56.572l-1.894.642a21.831 21.831 0 0 1 5.236-22.472c8.526-8.526 22.35-8.526 30.877 0l1.719 1.72-1.415 1.413-1.718-1.718c-7.746-7.746-20.303-7.746-28.049 0a19.831 19.831 0 0 0-4.756 20.415z"/></g></g></svg>